<svg width="58" height="90" viewBox="0 0 58 90" fill="none" xmlns="http://www.w3.org/2000/svg">
<path d="M15.8193 64.0761C16.0193 64.2665 16.3358 64.2588 16.5262 64.0589C16.7167 63.8589 16.709 63.5424 16.509 63.352L15.8193 64.0761ZM9.96051 57.8052L10.3054 57.4432L10.3053 57.4431L9.96051 57.8052ZM2.314 58.1558L2.69011 58.4853L2.69043 58.4849L2.314 58.1558ZM2.4331 65.2763L2.06822 65.6182L2.0683 65.6182L2.4331 65.2763ZM22.6537 86.8489L22.2889 87.1908L22.2894 87.1914L22.6537 86.8489ZM57.5 46.2123C57.5 45.9361 57.2761 45.7123 57 45.7123C56.7239 45.7123 56.5 45.9361 56.5 46.2123H57.5ZM46.2908 48.1546C46.2908 48.4308 46.5146 48.6546 46.7908 48.6546C47.0669 48.6546 47.2908 48.4308 47.2908 48.1546H46.2908ZM56.4997 46.2111C56.4997 46.4873 56.7236 46.7111 56.9997 46.7111C57.2759 46.7111 57.4997 46.4873 57.4997 46.2111H56.4997ZM36.0818 48.1561C36.0818 48.4322 36.3057 48.6561 36.5818 48.6561C36.858 48.6561 37.0818 48.4322 37.0818 48.1561H36.0818ZM46.2908 48.1561C46.2908 48.4322 46.5146 48.6561 46.7908 48.6561C47.0669 48.6561 47.2908 48.4322 47.2908 48.1561H46.2908ZM25.8729 48.1523C25.8729 48.4284 26.0967 48.6523 26.3729 48.6523C26.649 48.6523 26.8729 48.4284 26.8729 48.1523H25.8729ZM36.0818 48.1523C36.0818 48.4284 36.3057 48.6523 36.5818 48.6523C36.858 48.6523 37.0818 48.4284 37.0818 48.1523H36.0818ZM15.6639 63.7117C15.6639 63.9879 15.8878 64.2117 16.1639 64.2117C16.44 64.2117 16.6639 63.9879 16.6639 63.7117H15.6639ZM16.1639 28.8936L16.1637 28.3936C15.8877 28.3937 15.6639 28.6175 15.6639 28.8936H16.1639ZM26.3729 28.8902H26.8729C26.8729 28.7576 26.8202 28.6304 26.7264 28.5366C26.6325 28.4428 26.5053 28.3902 26.3727 28.3902L26.3729 28.8902ZM25.8729 48.1534C25.8729 48.4296 26.0967 48.6534 26.3729 48.6534C26.649 48.6534 26.8729 48.4296 26.8729 48.1534H25.8729ZM13.948 1.5H27.8919V0.5H13.948V1.5ZM32.3719 5.981V23.9126H33.3719V5.981H32.3719ZM27.8919 28.3936H13.948V29.3936H27.8919V28.3936ZM9.46797 23.9126V5.981H8.46797V23.9126H9.46797ZM13.948 28.3936C11.4738 28.3936 9.46797 26.3875 9.46797 23.9126H8.46797C8.46797 26.9396 10.9213 29.3936 13.948 29.3936V28.3936ZM32.3719 23.9126C32.3719 26.3875 30.366 28.3936 27.8919 28.3936V29.3936C30.9185 29.3936 33.3719 26.9396 33.3719 23.9126H32.3719ZM27.8919 1.5C30.366 1.5 32.3719 3.50612 32.3719 5.981H33.3719C33.3719 2.95402 30.9185 0.5 27.8919 0.5V1.5ZM13.948 0.5C10.9213 0.5 8.46797 2.95402 8.46797 5.981H9.46797C9.46797 3.50612 11.4738 1.5 13.948 1.5V0.5ZM14.9439 9.4696H26.8959V8.4696H14.9439V9.4696ZM28.3879 10.962V22.9164H29.3879V10.962H28.3879ZM26.8959 24.4088H14.9439V25.4088H26.8959V24.4088ZM13.452 22.9164V10.962H12.452V22.9164H13.452ZM14.9439 24.4088C14.12 24.4088 13.452 23.7407 13.452 22.9164H12.452C12.452 24.2928 13.5676 25.4088 14.9439 25.4088V24.4088ZM28.3879 22.9164C28.3879 23.7407 27.7198 24.4088 26.8959 24.4088V25.4088C28.2723 25.4088 29.3879 24.2928 29.3879 22.9164H28.3879ZM26.8959 9.4696C27.7198 9.4696 28.3879 10.1377 28.3879 10.962H29.3879C29.3879 9.58559 28.2723 8.4696 26.8959 8.4696V9.4696ZM14.9439 8.4696C13.5676 8.4696 12.452 9.58559 12.452 10.962H13.452C13.452 10.1377 14.12 9.4696 14.9439 9.4696V8.4696ZM17.9319 5.4848H23.9079V4.4848H17.9319V5.4848ZM23.9079 6.4772H17.9319V7.4772H23.9079V6.4772ZM17.9319 6.4772C17.6581 6.4772 17.4359 6.25514 17.4359 5.981H16.4359C16.4359 6.80723 17.1056 7.4772 17.9319 7.4772V6.4772ZM24.4039 5.981C24.4039 6.25514 24.1817 6.4772 23.9079 6.4772V7.4772C24.7342 7.4772 25.4039 6.80723 25.4039 5.981H24.4039ZM23.9079 5.4848C24.1817 5.4848 24.4039 5.70686 24.4039 5.981H25.4039C25.4039 5.15477 24.7342 4.4848 23.9079 4.4848V5.4848ZM17.9319 4.4848C17.1056 4.4848 16.4359 5.15477 16.4359 5.981H17.4359C17.4359 5.70686 17.6581 5.4848 17.9319 5.4848V4.4848ZM16.509 63.352L10.3054 57.4432L9.61566 58.1673L15.8193 64.0761L16.509 63.352ZM10.3053 57.4431C9.73844 56.9035 9.06834 56.4841 8.33526 56.2103L7.98532 57.1471C8.59202 57.3737 9.14663 57.7208 9.61576 58.1674L10.3053 57.4431ZM8.33526 56.2103C7.60219 55.9364 6.8213 55.8137 6.03959 55.8496L6.08539 56.8485C6.73234 56.8189 7.37861 56.9204 7.98532 57.1471L8.33526 56.2103ZM6.03959 55.8496C5.25787 55.8854 4.49148 56.0791 3.78653 56.4188L4.22072 57.3197C4.80415 57.0384 5.43843 56.8782 6.08539 56.8485L6.03959 55.8496ZM3.78653 56.4188C3.08158 56.7586 2.45265 57.2375 1.93756 57.8267L2.69043 58.4849C3.11675 57.9972 3.63729 57.6009 4.22072 57.3197L3.78653 56.4188ZM1.93788 57.8264C0.988938 58.9097 0.476724 60.3073 0.500813 61.7474L1.50067 61.7307C1.48073 60.5387 1.9047 59.3819 2.69011 58.4853L1.93788 57.8264ZM0.500813 61.7474C0.524901 63.1875 1.08357 64.5672 2.06822 65.6182L2.79799 64.9345C1.98303 64.0646 1.52061 62.9226 1.50067 61.7307L0.500813 61.7474ZM2.0683 65.6182L22.2889 87.1908L23.0185 86.5069L2.7979 64.9344L2.0683 65.6182ZM22.2894 87.1914C23.6731 88.663 25.598 89.5 27.6186 89.5V88.5C25.8755 88.5 24.2137 87.7781 23.0179 86.5064L22.2894 87.1914ZM27.6186 89.5H43.3881V88.5H27.6186V89.5ZM43.3881 89.5C51.8634 89.5 57.5 82.4356 57.5 75.3853H56.5C56.5 81.9496 51.2471 88.5 43.3881 88.5V89.5ZM57.5 75.3853V46.2123H56.5V75.3853H57.5ZM47.2908 48.1546V46.2111H46.2908V48.1546H47.2908ZM47.2908 46.2111C47.2908 44.3799 47.8886 43.0526 48.7423 42.1851C49.6001 41.3134 50.7454 40.8755 51.8953 40.8755C53.0452 40.8755 54.1904 41.3134 55.0482 42.1851C55.9019 43.0526 56.4997 44.3799 56.4997 46.2111H57.4997C57.4997 44.1519 56.8215 42.5614 55.761 41.4837C54.7046 40.4102 53.2976 39.8755 51.8953 39.8755C50.4929 39.8755 49.0859 40.4102 48.0295 41.4837C46.969 42.5614 46.2908 44.1519 46.2908 46.2111H47.2908ZM37.0818 48.1561V42.3221H36.0818V48.1561H37.0818ZM37.0818 42.3221C37.0818 40.491 37.6797 39.1636 38.5334 38.2961C39.3911 37.4245 40.5364 36.9865 41.6863 36.9865C42.8362 36.9865 43.9815 37.4245 44.8392 38.2961C45.6929 39.1636 46.2908 40.491 46.2908 42.3221H47.2908C47.2908 40.2629 46.6125 38.6724 45.552 37.5947C44.4956 36.5212 43.0886 35.9865 41.6863 35.9865C40.284 35.9865 38.877 36.5212 37.8206 37.5947C36.7601 38.6724 36.0818 40.2629 36.0818 42.3221H37.0818ZM46.2908 42.3221V48.1561H47.2908V42.3221H46.2908ZM26.8729 48.1523V39.6431H25.8729V48.1523H26.8729ZM26.8729 39.6431C26.8729 37.8119 27.4707 36.4846 28.3244 35.6171C29.1822 34.7454 30.3274 34.3075 31.4773 34.3075C32.6272 34.3075 33.7725 34.7454 34.6303 35.6171C35.484 36.4846 36.0818 37.8119 36.0818 39.6431H37.0818C37.0818 37.5838 36.4036 35.9934 35.3431 34.9157C34.2867 33.8421 32.8797 33.3075 31.4773 33.3075C30.075 33.3075 28.668 33.8421 27.6116 34.9157C26.5511 35.9934 25.8729 37.5838 25.8729 39.6431H26.8729ZM36.0818 39.6431V48.1523H37.0818V39.6431H36.0818ZM16.6639 63.7117V28.8936H15.6639V63.7117H16.6639ZM25.8729 28.8902V48.1534H26.8729V28.8902H25.8729ZM16.1641 29.3936L26.373 29.3902L26.3727 28.3902L16.1637 28.3936L16.1641 29.3936Z" fill="black"/>
</svg>
