<svg width="92" height="93" viewBox="0 0 92 93" fill="none" xmlns="http://www.w3.org/2000/svg">
<mask id="mask0" mask-type="alpha" maskUnits="userSpaceOnUse" x="0" y="0" width="92" height="93">
<path fill-rule="evenodd" clip-rule="evenodd" d="M26.1422 0.000778598C28.3422 -0.0334295 30.1431 1.06383 30.1646 2.45158C30.1841 3.70612 28.7427 4.76858 26.8405 4.98627C27.1542 5.601 27.5225 6.14386 27.929 6.62161C31.6289 7.05793 34.9916 8.59691 37.6803 10.9013C38.5616 10.8969 39.4099 10.7667 40.2417 10.4749C39.3944 8.98366 39.3589 7.40472 40.2524 6.66967C41.3237 5.78852 43.3244 6.45373 44.7213 8.15547C46.1182 9.8572 46.3822 11.951 45.311 12.8322C44.3593 13.6151 42.6738 13.1773 41.33 11.8764C41.0232 12.7488 40.8771 13.6031 40.8529 14.422C41.5202 15.3879 42.0974 16.421 42.5722 17.5091L49.5094 11.8471C50.9661 10.6527 52.791 10 54.674 10C56.557 10 58.3819 10.6527 59.8385 11.8471L88.2609 35.045C89.228 35.8387 90.0067 36.8377 90.5406 37.9698C91.0745 39.1019 91.3503 40.3386 91.348 41.5905V83.6693C91.348 88.3058 87.6547 92.0635 83.0963 92.0635H72.0941C67.5358 92.0635 63.8425 88.3058 63.8425 83.6693V63.4495C63.8425 61.9054 62.6128 60.6529 61.0919 60.6529H48.256C46.7373 60.6529 45.5055 61.9054 45.5055 63.4495V83.6714C45.5055 88.308 41.8122 92.0656 37.2538 92.0656H26.2517C21.6955 92.0634 18 88.3058 18 83.6693V41.5905C18 41.556 18.0001 41.5215 18.0005 41.4869C16.757 40.9047 15.5896 40.1869 14.5172 39.3524C13.4855 39.4816 12.4105 39.8137 11.3274 40.4224C12.6234 42.0966 12.8437 44.0989 11.8025 44.9554C10.7313 45.8365 8.7305 45.1713 7.33361 43.4696C5.93671 41.7678 5.67269 39.674 6.7439 38.7928C7.69973 38.0066 9.39567 38.4515 10.7423 39.7655C11.2745 38.663 11.4987 37.5505 11.4973 36.3877C9.31886 33.6922 7.88748 30.3668 7.51832 26.7271C6.76161 26.1031 5.92727 25.6267 4.96458 25.3205C4.67955 27.2378 3.55106 28.659 2.2894 28.5868C0.905192 28.5076 -0.115127 26.6607 0.0104544 24.4618C0.136035 22.2628 1.35996 20.5444 2.74417 20.6236C3.97955 20.6943 4.92508 22.173 5.02485 24.0533C6.07618 23.5648 6.92819 22.9275 7.61212 22.2095C8.0252 19.34 9.10131 16.6851 10.68 14.4054C10.5847 13.5671 10.3806 12.7725 10.0352 12.011C8.71683 13.2067 7.11587 13.5874 6.19776 12.8322C5.12655 11.951 5.39057 9.85717 6.78746 8.15544C8.18435 6.4537 10.1851 5.78849 11.2563 6.66964C12.1696 7.42083 12.1124 9.05337 11.2101 10.573C12.2105 10.797 13.1654 10.827 14.0577 10.7186C16.7843 8.45342 20.177 6.96392 23.8981 6.58815C24.3331 6.07976 24.6999 5.53057 24.9918 4.92399C23.3869 4.62262 22.215 3.69328 22.1977 2.57546C22.1762 1.18771 23.9422 0.0349867 26.1422 0.000778598ZM40.4822 19.215L36.7477 22.263C36.4732 22.0307 36.2089 21.7636 35.9634 21.4645C34.5665 19.7627 34.3025 17.6689 35.3737 16.7877C36.4449 15.9066 38.4457 16.5718 39.8426 18.2735C40.0924 18.5779 40.306 18.8947 40.4822 19.215ZM30.3247 12.1086C30.3032 10.7208 28.5023 9.62358 26.3023 9.65778C24.1023 9.69199 22.3363 10.8447 22.3578 12.2325C22.3794 13.6202 24.1803 14.7175 26.3803 14.6833C28.5803 14.6491 30.3463 13.4963 30.3247 12.1086ZM15.8485 21.2219C17.2454 19.5202 17.5094 17.4263 16.4382 16.5452C15.367 15.664 13.3662 16.3292 11.9693 18.031C10.5724 19.7327 10.3084 21.8265 11.3796 22.7077C12.4508 23.5888 14.4516 22.9236 15.8485 21.2219ZM16.4382 34.8358C17.5094 33.9547 17.2454 31.8609 15.8485 30.1591C14.4516 28.4574 12.4508 27.7922 11.3796 28.6733C10.3084 29.5545 10.5724 31.6483 11.9693 33.3501C13.3662 35.0518 15.367 35.717 16.4382 34.8358ZM25.8119 20.8016C27.9817 20.7679 29.7681 22.5014 29.8018 24.6735C29.8355 26.8456 28.1038 28.6338 25.9339 28.6676C23.7641 28.7013 21.9777 26.9678 21.944 24.7957C21.9103 22.6235 23.642 20.8353 25.8119 20.8016ZM53.8336 25.1753C52.8714 25.1753 52.2299 25.8174 52.2299 26.7806V33.2019H45.8153C44.8531 33.2019 44.2117 33.844 44.2117 34.8072V36.4125C44.2117 37.3757 44.8531 38.0179 45.8153 38.0179H52.2299V44.4392C52.2299 45.4024 52.8714 46.0445 53.8336 46.0445H55.4372C56.3994 46.0445 57.0408 45.4024 57.0408 44.4392V38.0179H63.4554C64.4176 38.0179 65.0591 37.3757 65.0591 36.4125V34.8072C65.0591 33.844 64.4176 33.2019 63.4554 33.2019H57.0408V26.7806C57.0408 25.8174 56.3994 25.1753 55.4372 25.1753H53.8336Z" fill="white"/>
</mask>
<g mask="url(#mask0)">
<rect x="-36" y="-42" width="176.585" height="176.585" rx="29.6101" fill="url(#paint0_linear)"/>
</g>
<defs>
<linearGradient id="paint0_linear" x1="-16.3721" y1="-17.9923" x2="88.6279" y2="102.008" gradientUnits="userSpaceOnUse">
<stop stop-color="#79F8E1"/>
<stop offset="1" stop-color="#1179C5"/>
</linearGradient>
</defs>
</svg>
